<?xml version="1.0" encoding="UTF-8"?>
<svg version="1.1" xmlns="http://www.w3.org/2000/svg" width="1248" height="702">
<path d="M0 0 C411.84 0 823.68 0 1248 0 C1248 231.66 1248 463.32 1248 702 C836.16 702 424.32 702 0 702 C0 470.34 0 238.68 0 0 Z " fill="#FEFEFE" transform="translate(0,0)"/>
<path d="M0 0 C1.9474839 -0.01441132 1.9474839 -0.01441132 3.93431091 -0.02911377 C5.33909935 -0.0339616 6.74388985 -0.03824047 8.14868164 -0.04199219 C8.86259127 -0.04481956 9.57650089 -0.04764694 10.31204414 -0.05056 C14.08726491 -0.06549938 17.86244794 -0.074763 21.63769531 -0.07910156 C25.52238235 -0.08459027 29.40671964 -0.10864147 33.29129696 -0.13707352 C36.29314671 -0.15575461 39.29491291 -0.16090831 42.29681587 -0.16243744 C43.7284595 -0.16545023 45.16010213 -0.17343202 46.59168816 -0.18662262 C61.09538703 -0.31076554 61.09538703 -0.31076554 66.37133789 3.16113281 C69.80303579 7.48083927 70.87206706 10.33635858 70.87927246 15.82711792 C70.88551242 16.47180122 70.89175239 17.11648451 70.89818144 17.78070366 C70.91405551 19.92726099 70.90153055 22.07267382 70.88891602 24.21923828 C70.89433978 25.7637803 70.90146388 27.30831715 70.91015625 28.85284424 C70.92836548 33.03897244 70.92133132 37.22470555 70.90863991 41.41084051 C70.89849611 45.79800303 70.90790975 50.18513226 70.91418457 54.57229614 C70.9214585 61.94132544 70.91188159 69.3101943 70.89282227 76.67919922 C70.87107011 85.1873579 70.87809377 93.6951329 70.90012789 102.20328224 C70.91830847 109.51730144 70.92082676 116.83120544 70.91037321 124.14523995 C70.90415078 128.50946658 70.90326777 132.8735132 70.91651917 137.23772812 C70.92811525 141.34353489 70.91998388 145.44884968 70.89694214 149.55460358 C70.89167432 151.05736857 70.8931357 152.5601753 70.9019928 154.06292343 C70.94985877 163.01266581 70.91926425 170.19830764 64.56259155 177.1348877 C61.41871121 178.60728311 58.77669781 178.55807887 55.3112793 178.58105469 C54.6083223 178.58952423 53.9053653 178.59799377 53.18110657 178.60671997 C50.8615195 178.63008356 48.54259614 178.63111224 46.22290039 178.62988281 C44.60631038 178.63698556 42.98972289 178.64468473 41.37313843 178.6529541 C37.98542271 178.66639794 34.59794 178.66796852 31.21020508 178.66210938 C26.87666765 178.65621769 22.54425228 178.68678199 18.21093178 178.72722626 C14.87193823 178.7531255 11.53321391 178.75597862 8.19413376 178.75233459 C6.59698037 178.75402424 4.99981434 178.76365186 3.40275955 178.78147888 C1.16448039 178.80371161 -1.0715405 178.79394805 -3.30981445 178.77636719 C-4.58126312 178.77842163 -5.85271179 178.78047607 -7.16268921 178.78259277 C-11.66051205 177.97611884 -13.51112301 176.47162974 -16.62866211 173.16113281 C-20.90611699 166.50598574 -20.05131463 158.89867005 -20.0168457 151.2331543 C-20.02091473 149.71477888 -20.02625846 148.19640643 -20.03277588 146.67803955 C-20.04641484 142.56860382 -20.04116535 138.45939485 -20.03163862 134.34995532 C-20.02402565 130.04327978 -20.03109205 125.73662323 -20.03579712 121.4299469 C-20.04124932 114.19976324 -20.03407652 106.96967163 -20.01977539 99.73950195 C-20.00344371 91.3864128 -20.00874326 83.03354329 -20.02525461 74.68045944 C-20.03887739 67.50064703 -20.04078545 60.32090065 -20.0329386 53.14107949 C-20.02826723 48.85632449 -20.02762259 44.57167268 -20.03754807 40.28692436 C-20.04622722 36.2591615 -20.04017864 32.23168136 -20.0228653 28.20394897 C-20.01890577 26.72775301 -20.02002537 25.25153316 -20.02665329 23.77534676 C-20.03487901 21.75689175 -20.02272408 19.73838462 -20.00961304 17.71995544 C-20.00848196 16.59155463 -20.00735088 15.46315382 -20.00618553 14.30055904 C-19.45588624 9.72435551 -17.63317393 6.44275134 -14.81616211 2.84863281 C-10.5948212 -0.40783017 -5.15131763 0.03090667 0 0 Z " fill="#3B669C" transform="translate(968.628662109375,261.8388671875)"/>
<path d="M0 0 C1.16228622 -0.0159874 2.32457245 -0.03197479 3.52207947 -0.04844666 C4.78137772 -0.05380936 6.04067596 -0.05917206 7.33813477 -0.06469727 C8.63719254 -0.07372574 9.93625031 -0.08275421 11.27467346 -0.09205627 C14.03112261 -0.10855565 16.78745032 -0.11624644 19.54394531 -0.11914062 C23.04407029 -0.12448556 26.54301953 -0.16199551 30.04281521 -0.20788479 C33.41207795 -0.24516917 36.78117335 -0.24618999 40.15063477 -0.25219727 C42.01225502 -0.28149574 42.01225502 -0.28149574 43.91148376 -0.31138611 C55.04818858 -0.25453855 64.55710478 2.67028527 72.72485352 10.48217773 C79.88045429 18.55383368 80.64249253 27.20340904 80.6484375 37.54711914 C80.65676102 38.77717682 80.66508453 40.0072345 80.67366028 41.27456665 C80.69359333 44.63861594 80.70439525 48.00241802 80.70948672 51.36650515 C80.71314018 53.47357908 80.71938548 55.58062959 80.72648811 57.68769455 C80.75096341 65.05425807 80.76402925 72.42075143 80.76757812 79.78735352 C80.77120656 86.6277403 80.80105664 93.46767653 80.84298271 100.30792582 C80.87781826 106.20034536 80.89312888 112.09261662 80.89382416 117.9851383 C80.89461282 121.4955974 80.9031588 125.00559758 80.93182182 128.51594925 C80.96315174 132.44057404 80.95387965 136.36456589 80.94140625 140.28930664 C80.95624054 141.43363159 80.97107483 142.57795654 80.98635864 143.75695801 C80.89456538 153.95609408 78.11038216 162.55081949 71.34204102 170.30639648 C69.01000977 172.03686523 69.01000977 172.03686523 66.52954102 173.49389648 C65.31331055 174.22672852 65.31331055 174.22672852 64.07250977 174.97436523 C56.26633577 178.78252737 48.95235107 178.59886925 40.38500977 178.57202148 C39.03216991 178.57337042 37.67933052 178.57531286 36.32649231 178.57781982 C33.50488627 178.5807553 30.68340756 178.57652115 27.86181641 178.56713867 C24.24239436 178.55568998 20.62326719 178.5623474 17.00385571 178.5742836 C14.21665711 178.5814983 11.42952893 178.57921705 8.64232826 178.57402802 C6.65804985 178.57204452 4.67376871 178.57811972 2.6894989 178.58428955 C1.49097794 178.57798523 0.29245697 178.57168091 -0.94238281 178.56518555 C-2.0004866 178.56359436 -3.05859039 178.56200317 -4.14875793 178.56036377 C-6.65795898 178.30639648 -6.65795898 178.30639648 -8.65795898 176.30639648 C-8.91243458 173.34846497 -8.91243458 173.34846497 -8.9186554 169.47363281 C-8.92248094 168.76279698 -8.92630649 168.05196115 -8.93024796 167.31958485 C-8.940608 164.92579166 -8.93658022 162.532237 -8.93261719 160.13842773 C-8.93696198 158.42711158 -8.94214434 156.71579737 -8.94810486 155.00448608 C-8.96153036 150.34757215 -8.96206966 145.69073919 -8.95954156 141.03380966 C-8.95847438 137.1518084 -8.96334864 133.26982369 -8.96814698 129.38782597 C-8.97925417 120.23339165 -8.97967258 111.07899835 -8.97363281 101.92456055 C-8.96758901 92.46668071 -8.97991156 83.00894949 -9.00120288 73.55109501 C-9.01878881 65.44237599 -9.02482506 57.3337044 -9.02156514 49.224967 C-9.01974752 44.37687581 -9.02243595 39.52889065 -9.03627968 34.68081665 C-9.04880483 30.12375771 -9.04696468 25.56693139 -9.03386879 21.00987625 C-9.03149191 19.33365426 -9.03427715 17.65741616 -9.04249191 15.98121262 C-9.05286781 13.70025394 -9.04493386 11.42008922 -9.03218079 9.13916016 C-9.03234853 7.86046555 -9.03251627 6.58177094 -9.03268909 5.264328 C-8.90902816 4.2882106 -8.78536722 3.3120932 -8.65795898 2.30639648 C-5.25342336 0.03670607 -4.00144866 0.0416159 0 0 Z " fill="#3A659C" transform="translate(583.657958984375,261.693603515625)"/>
<path d="M0 0 C7.92 0 15.84 0 24 0 C28.90212305 11.55359244 33.43770164 23.24661046 38 34.9375 C38.80196902 36.98897698 39.60405158 39.04040958 40.40625 41.09179688 C44.29880599 51.0505708 48.17649883 61.0144844 52 71 C52.83315563 73.16673501 53.66647285 75.33340789 54.5 77.5 C54.90605469 78.55832031 55.31210937 79.61664063 55.73046875 80.70703125 C56.62202626 83.01959167 57.52113372 85.32924794 58.42578125 87.63671875 C58.88339844 88.80847656 59.34101562 89.98023438 59.8125 91.1875 C60.23144531 92.25355469 60.65039062 93.31960938 61.08203125 94.41796875 C62 97 62 97 62 99 C62.66 98.67 63.32 98.34 64 98 C64.33 65.66 64.66 33.32 65 0 C73.58 0 82.16 0 91 0 C91 58.74 91 117.48 91 178 C83.08 178 75.16 178 67 178 C63.27048552 170.31493986 60.36491855 162.5476709 57.58984375 154.47851562 C55.59299417 148.67462892 53.48659255 142.93139774 51.25 137.21484375 C49.77716717 133.42690181 48.35655852 129.62083031 46.9375 125.8125 C45.33630532 121.52320864 43.71891799 117.24380167 42 113 C40.28106972 108.75616798 38.66490243 104.47635704 37.0625 100.1875 C36.67904419 99.1663208 36.67904419 99.1663208 36.2878418 98.12451172 C35.04304652 94.80689421 33.81147778 91.48568177 32.609375 88.15234375 C32.18140625 86.98832031 31.7534375 85.82429688 31.3125 84.625 C30.74982422 83.06652344 30.74982422 83.06652344 30.17578125 81.4765625 C29.12245141 78.71059979 29.12245141 78.71059979 26 77 C26 110.33 26 143.66 26 178 C17.42 178 8.84 178 0 178 C0 119.26 0 60.52 0 0 Z " fill="#3A659C" transform="translate(463,262)"/>
<path d="M0 0 C7.59 0 15.18 0 23 0 C26.18375004 6.36750007 29.10380488 12.44240917 31.59375 19.05078125 C32.06476135 20.28177803 32.06476135 20.28177803 32.54528809 21.53764343 C33.53500096 24.12745875 34.51767005 26.71987659 35.5 29.3125 C36.15707695 31.03598851 36.81462604 32.7592971 37.47265625 34.48242188 C38.74134981 37.80645865 40.00758785 41.13141178 41.27148438 44.45727539 C44.31522668 52.46321779 47.39843799 60.45379078 50.5 68.4375 C52.26617734 73.01627323 53.93620092 77.61977234 55.5625 82.25 C58.14832737 91.84653679 58.14832737 91.84653679 64 99 C64 66.33 64 33.66 64 0 C72.58 0 81.16 0 90 0 C90 58.74 90 117.48 90 178 C82.41 178 74.82 178 67 178 C62.87806626 169.55506259 59.51554662 161.14732254 56.53686523 152.24511719 C54.92132248 147.45627217 53.08741666 142.87876254 50.99072266 138.28173828 C49.25864613 134.29258421 47.89636438 130.17851609 46.5 126.0625 C44.46799976 120.16470391 42.40620145 114.31144344 40.02734375 108.54296875 C37.80729108 103.0477053 35.77657586 97.47721837 33.71386719 91.92138672 C33.05416699 90.14579145 32.39053967 88.37165659 31.7265625 86.59765625 C31.18128906 85.12619141 31.18128906 85.12619141 30.625 83.625 C30.30789063 82.77164063 29.99078125 81.91828125 29.6640625 81.0390625 C29 79 29 79 29 77 C28.01 77 27.02 77 26 77 C26 110.33 26 143.66 26 178 C17.42 178 8.84 178 0 178 C0 119.26 0 60.52 0 0 Z " fill="#39659B" transform="translate(1061,262)"/>
<path d="M0 0 C1.20144653 -0.00960754 2.40289307 -0.01921509 3.64074707 -0.02911377 C5.56751282 -0.03548859 5.56751282 -0.03548859 7.53320312 -0.04199219 C8.19319809 -0.04481956 8.85319305 -0.04764694 9.53318787 -0.05056 C13.02196648 -0.06549078 16.51070435 -0.07476035 19.99951172 -0.07910156 C23.5906067 -0.08459518 27.18132426 -0.10865894 30.77230072 -0.13707352 C33.54678427 -0.15574307 36.32117734 -0.16090765 39.09571838 -0.16243744 C41.05991004 -0.16691067 43.02405316 -0.18552762 44.98815918 -0.20440674 C46.18960571 -0.20140564 47.39105225 -0.19840454 48.62890625 -0.1953125 C50.20726257 -0.20078094 50.20726257 -0.20078094 51.81750488 -0.20635986 C57.81943091 0.52961009 61.95017264 3.50523045 65.64080811 8.1065979 C67.79804728 11.88297247 67.63110343 15.63641829 67.54101562 19.89160156 C67.54251114 21.2608654 67.54251114 21.2608654 67.54403687 22.65779114 C67.53937775 24.57655602 67.52005225 26.49533568 67.48681641 28.41381836 C67.43941686 31.3508799 67.44573207 34.28433007 67.45898438 37.22167969 C67.44783583 39.09084194 67.4336192 40.95998896 67.41601562 42.82910156 C67.41874985 44.14324287 67.41874985 44.14324287 67.42153931 45.4839325 C67.33185326 49.33207021 67.27821322 51.49577671 65.03857422 54.70898438 C61.3728278 57.10238281 58.07981056 56.78154901 53.81445312 56.72363281 C52.60402344 56.7594043 52.60402344 56.7594043 51.36914062 56.79589844 C47.14424817 56.78544078 45.45437236 56.77805495 42.31445312 53.75097656 C40.12972752 49.97891126 39.65249784 47.86582605 39.49804688 43.49707031 C39.45615234 42.37558594 39.41425781 41.25410156 39.37109375 40.09863281 C39.33177734 38.92300781 39.29246094 37.74738281 39.25195312 36.53613281 C39.20876953 35.35277344 39.16558594 34.16941406 39.12109375 32.95019531 C39.01477886 30.02062954 38.91274671 27.09097693 38.81445312 24.16113281 C34.25165012 22.64019848 29.71900744 22.93573798 24.93945312 22.91113281 C23.94558594 22.89050781 22.95171875 22.86988281 21.92773438 22.84863281 C20.48333984 22.84089844 20.48333984 22.84089844 19.00976562 22.83300781 C17.69516357 22.81898926 17.69516357 22.81898926 16.35400391 22.8046875 C13.03728286 23.27021458 11.33274486 23.91934411 8.81445312 26.16113281 C8.33239869 28.96804447 8.18163152 31.16684516 8.25585938 33.96972656 C8.25819077 34.7328566 8.26052216 35.49598663 8.26292419 36.28224182 C8.27266224 37.89538759 8.29445127 39.5084991 8.32739258 41.12133789 C8.37670623 43.58629172 8.38886706 46.04924639 8.39453125 48.51464844 C8.40862183 50.08302897 8.42482789 51.65139222 8.44335938 53.21972656 C8.45140343 54.32301552 8.45140343 54.32301552 8.45960999 55.44859314 C8.49253531 60.6868083 8.49253531 60.6868083 10.81445312 65.16113281 C13.06437386 66.4462454 15.17751265 67.49637381 17.54492188 68.50878906 C18.21356766 68.80675888 18.88221344 69.1047287 19.57112122 69.41172791 C21.70957269 70.36124649 23.85542166 71.2925462 26.00195312 72.22363281 C27.42760369 72.85331538 28.85274035 73.48416282 30.27734375 74.11621094 C36.43751218 76.84195433 42.62220134 79.50922065 48.81445312 82.16113281 C51.40844112 83.2842998 53.98857567 84.43458398 56.56445312 85.59863281 C57.22316406 85.88544922 57.881875 86.17226563 58.56054688 86.46777344 C62.27173628 88.15775726 64.83116964 89.53675208 66.81445312 93.16113281 C67.9433734 96.64703325 67.96025757 99.95862879 67.99145508 103.60693359 C68.01070793 105.5701506 68.01070793 105.5701506 68.03034973 107.57302856 C68.03852033 109.00083027 68.04596345 110.42863629 68.05273438 111.85644531 C68.0568099 112.5794772 68.06088543 113.30250908 68.06508446 114.04745102 C68.08591895 117.87798523 68.10022934 121.70848395 68.10961914 125.5390625 C68.12065031 129.47293955 68.15501881 133.40624578 68.19479084 137.33992195 C68.221088 140.38393112 68.2293227 143.42780727 68.23290062 146.47192001 C68.23773651 147.92064117 68.24926378 149.3693576 68.26793861 150.81796646 C68.46528311 167.14691296 68.46528311 167.14691296 63.81445312 174.16113281 C59.98079566 178.02383474 57.38657164 178.66671799 52.00805664 178.69458008 C51.3439679 178.70319565 50.67987915 178.71181122 49.9956665 178.72068787 C47.81116202 178.7432994 45.62794558 178.73661863 43.44335938 178.72753906 C41.91787843 178.73277716 40.39240073 178.73905433 38.8669281 178.74632263 C35.67341853 178.75671809 32.48035477 178.75217857 29.28686523 178.73754883 C25.20326479 178.72036863 21.12107245 178.74384928 17.03762913 178.77903843 C13.88818619 178.80104746 10.73907831 178.79956254 7.58958244 178.79127312 C6.08454787 178.79045537 4.57948826 178.79728511 3.07452583 178.81204414 C-10.13659388 178.92174215 -10.13659388 178.92174215 -13.96704102 176.05932617 C-18.82866612 169.70823653 -19.659678 164.19738321 -19.68945312 156.46582031 C-19.69943832 155.55534943 -19.70942352 154.64487854 -19.7197113 153.70681763 C-19.73482801 151.79238401 -19.74193911 149.87787214 -19.74145508 147.96337891 C-19.7480447 145.03709804 -19.80266805 142.11416234 -19.859375 139.18847656 C-19.86817318 137.32260269 -19.87412999 135.45671279 -19.87695312 133.59082031 C-19.90928795 132.28442093 -19.90928795 132.28442093 -19.942276 130.95162964 C-19.875995 125.07818583 -19.875995 125.07818583 -17.92527771 122.48724365 C-14.10103934 119.12102847 -11.12481131 118.53051002 -6.12304688 118.66113281 C-4.93582031 118.67144531 -3.74859375 118.68175781 -2.52539062 118.69238281 C2.00308438 119.32795825 4.61783864 120.96451833 7.81445312 124.16113281 C7.98925993 126.5975262 8.04636736 128.92142118 8.00976562 131.35644531 C8.00477051 132.6508252 7.99977539 133.94520508 7.99462891 135.27880859 C7.96731689 137.75743408 7.96731689 137.75743408 7.93945312 140.28613281 C7.89820313 145.52488281 7.85695313 150.76363281 7.81445312 156.16113281 C18.70445312 156.16113281 29.59445312 156.16113281 40.81445312 156.16113281 C40.81445312 140.65113281 40.81445312 125.14113281 40.81445312 109.16113281 C37.51445313 108.17113281 34.21445312 107.18113281 30.81445312 106.16113281 C27.95411669 105.06664961 25.13374252 103.95103514 22.31445312 102.76269531 C21.55326172 102.44585785 20.79207031 102.12902039 20.0078125 101.80258179 C18.4137115 101.13771237 16.82061758 100.47042348 15.22851562 99.80078125 C12.8223071 98.7894339 10.41244102 97.78723121 8.00195312 96.78613281 C4.2372429 95.21773028 0.48781894 93.61698431 -3.25292969 91.99230957 C-4.9589299 91.25859586 -6.67691426 90.55288352 -8.39648438 89.8515625 C-9.275625 89.46645508 -10.15476562 89.08134766 -11.06054688 88.68457031 C-12.13949219 88.23090088 -12.13949219 88.23090088 -13.24023438 87.76806641 C-17.47369504 84.27099837 -18.95982314 80.19675635 -19.5475769 74.89627075 C-19.6983956 70.90278807 -19.71596389 66.92979039 -19.68164062 62.93457031 C-19.68179585 61.45822071 -19.68328874 59.98187071 -19.68605042 58.50552368 C-19.687429 55.42407024 -19.6749651 52.34308533 -19.65209961 49.26171875 C-19.62366595 45.32309675 -19.62647285 41.38524923 -19.63918972 37.44656944 C-19.64616094 34.40267379 -19.6383421 31.35895554 -19.62593269 28.31508255 C-19.6214357 26.86310126 -19.62106599 25.41110082 -19.62499809 23.95911789 C-19.62792548 21.92795398 -19.60918911 19.89679421 -19.58959961 17.86572266 C-19.58149513 16.13653091 -19.58149513 16.13653091 -19.57322693 14.37240601 C-19.01620412 9.75841462 -17.21427727 6.47365091 -14.37304688 2.84863281 C-10.26154328 -0.32309853 -5.02640179 0.03261648 0 0 Z " fill="#3A669C" transform="translate(752.185546875,261.8388671875)"/>
<path d="M0 0 C3.5625 0.53515625 3.5625 0.53515625 5.96875 2.6953125 C6.6596875 3.65308594 7.350625 4.61085938 8.0625 5.59765625 C10.63627306 9.00899614 13.10910204 12.25469409 16.1875 15.22265625 C19.34649407 18.27119599 22.22314544 21.50602245 25.08203125 24.8359375 C26.19421172 26.1124507 27.36533014 27.33798639 28.5625 28.53515625 C28.953125 30.85546875 28.953125 30.85546875 28.5625 33.53515625 C26.734375 36.02734375 26.734375 36.02734375 24.3125 38.41015625 C23.52359375 39.21195312 22.7346875 40.01375 21.921875 40.83984375 C19.5625 42.53515625 19.5625 42.53515625 17.60620117 42.33862305 C15.18951643 41.38852037 14.17430588 40.34910865 12.50390625 38.375 C11.95283203 37.74658203 11.40175781 37.11816406 10.83398438 36.47070312 C9.69437669 35.13833894 8.55895096 33.80238644 7.42773438 32.46289062 C4.26746256 28.75188981 4.26746256 28.75188981 -0.07421875 26.8515625 C-3.20989892 27.75857743 -4.58659461 29.15657143 -6.8125 31.53515625 C-7.59625 32.36402344 -8.38 33.19289063 -9.1875 34.046875 C-11.65360259 36.77414471 -14.09744452 39.51453347 -16.4921875 42.3046875 C-18.92473615 45.09381456 -21.42928614 47.81433174 -23.9375 50.53515625 C-26.97658849 53.83524881 -29.99906569 57.14465513 -32.9375 60.53515625 C-35.8759401 63.92566405 -38.89864142 67.23484655 -41.9375 70.53515625 C-45.55840134 74.46800466 -49.12708925 78.43729637 -52.62890625 82.4765625 C-55.7152948 85.98957927 -58.88378778 89.42815443 -62.03515625 92.8828125 C-64.57125351 95.68282882 -67.05307608 98.52443196 -69.52734375 101.37890625 C-71.48282362 103.58631911 -73.48193794 105.74991084 -75.48925781 107.91015625 C-79.29521394 112.01637999 -83.06966498 116.14567651 -86.625 120.47265625 C-87.17542969 121.14167969 -87.72585937 121.81070313 -88.29296875 122.5 C-89.80475419 125.18819186 -90.01201471 126.48931637 -89.4375 129.53515625 C-87.80767598 131.67190564 -86.25447031 133.46088348 -84.375 135.34765625 C-83.35087933 136.41731508 -82.32744037 137.48762702 -81.3046875 138.55859375 C-80.55783691 139.32961426 -80.55783691 139.32961426 -79.79589844 140.11621094 C-78.13529063 141.85083577 -76.5607079 143.64794801 -75 145.47265625 C-71.37537911 149.65625482 -67.60364933 153.69950235 -63.84008789 157.75756836 C-60.61074129 161.24586961 -57.45250963 164.78249805 -54.34375 168.37890625 C-51.75464998 171.30756038 -49.09553766 174.16912298 -46.4375 177.03515625 C-42.64865843 181.12084356 -38.91578053 185.23908994 -35.26953125 189.453125 C-32.43885739 192.67007418 -29.52982984 195.81486305 -26.62915039 198.96850586 C-22.93902639 202.9820922 -19.2807112 207.02294232 -15.640625 211.08203125 C-14.09323686 212.80500954 -12.54068943 214.52336153 -10.984375 216.23828125 C-10.18515625 217.12 -9.3859375 218.00171875 -8.5625 218.91015625 C-7.84320313 219.70164062 -7.12390625 220.493125 -6.3828125 221.30859375 C-4.4375 223.53515625 -4.4375 223.53515625 -2.9921875 225.82421875 C-1.5410819 227.72531795 -1.5410819 227.72531795 0.859375 228.1796875 C5.05466515 227.17936543 7.04858213 224.40315037 9.8125 221.22265625 C10.38460205 220.58545654 10.9567041 219.94825684 11.54614258 219.29174805 C15.63146877 214.70629488 19.538335 209.98331166 23.37890625 205.19140625 C26.52857724 201.3599639 29.88037267 197.72658325 33.234375 194.07421875 C41.62938657 184.91858533 49.60193283 175.36452293 57.65234375 165.90625 C62.27706296 160.48035748 66.92485626 155.09788993 71.75 149.84765625 C74.95895044 146.35255736 78.02315837 142.79231785 81 139.09765625 C85.12706776 133.98097188 89.5020701 129.16278069 93.984375 124.359375 C96.60819641 121.48509791 99.09308305 118.54198228 101.5625 115.53515625 C105.82274065 116.0425054 107.85958561 117.26406311 110.875 120.28515625 C111.57238281 120.960625 112.26976562 121.63609375 112.98828125 122.33203125 C114.5625 124.53515625 114.5625 124.53515625 115.1328125 126.8828125 C114.27916634 130.85285182 111.79240298 133.30887147 109.125 136.22265625 C108.57803467 136.83987549 108.03106934 137.45709473 107.4675293 138.09301758 C105.84487811 139.91864836 104.20663044 141.72887062 102.5625 143.53515625 C101.74265625 144.44265625 100.9228125 145.35015625 100.078125 146.28515625 C98.61936364 147.89910498 97.15845343 149.5111143 95.6953125 151.12109375 C93.46950396 153.64041551 91.3563917 156.22787876 89.25 158.84765625 C85.35994069 163.66101062 81.23378166 168.18277075 77.00683594 172.69628906 C73.08371407 176.90908766 69.44353586 181.29910977 65.83984375 185.7890625 C62.90172549 189.33193924 59.78018822 192.68957397 56.64599609 196.05712891 C53.67519934 199.26832498 50.86281679 202.56152466 48.125 205.97265625 C44.28139943 210.75137253 40.19289836 215.22673312 36.00415039 219.69897461 C32.88696055 223.04614952 29.92676202 226.46520648 27.0625 230.03515625 C23.17768474 234.87525395 19.05747156 239.43529112 14.80615234 243.9519043 C12.10999254 246.82163102 9.59172336 249.72405897 7.1875 252.84765625 C4.5625 255.53515625 4.5625 255.53515625 1.86328125 256.171875 C-3.24251118 255.18697066 -5.549353 251.85136156 -8.875 248.03515625 C-9.50470703 247.3390625 -10.13441406 246.64296875 -10.78320312 245.92578125 C-13.30553382 243.12607194 -15.78157688 240.2872955 -18.25830078 237.44726562 C-21.92154441 233.24747106 -25.63774465 229.11171496 -29.4375 225.03515625 C-33.20407257 220.97598926 -36.90973387 216.88100335 -40.53125 212.69140625 C-43.12035002 209.76275212 -45.77946234 206.90118952 -48.4375 204.03515625 C-52.22383906 199.95216752 -55.95517133 195.83745811 -59.59765625 191.625 C-62.00420156 188.89145066 -64.47053196 186.21401619 -66.9375 183.53515625 C-70.53765323 179.62536444 -74.08167664 175.67649089 -77.5625 171.66015625 C-79.98300075 168.91692207 -82.45950642 166.22631057 -84.9375 163.53515625 C-88.53706422 159.6259521 -92.08305466 155.68005688 -95.55859375 151.66015625 C-97.51747298 149.44470864 -99.52398273 147.27700845 -101.5378418 145.11157227 C-114.10377194 131.56369934 -114.10377194 131.56369934 -114.8359375 127.11328125 C-114.29469772 123.61114152 -112.82356741 122.25297883 -110.375 119.72265625 C-109.13169922 118.40974609 -109.13169922 118.40974609 -107.86328125 117.0703125 C-107.06277344 116.23371094 -106.26226562 115.39710938 -105.4375 114.53515625 C-104.30371144 113.25119703 -103.17791115 111.96011231 -102.0625 110.66015625 C-98.65270847 106.74521042 -95.14410037 102.92338229 -91.62988281 99.10253906 C-87.19552997 94.27968714 -82.81247099 89.41191602 -78.4375 84.53515625 C-76.93778872 82.86822978 -75.43778679 81.20156476 -73.9375 79.53515625 C-73.195 78.71015625 -72.4525 77.88515625 -71.6875 77.03515625 C-63.4375 67.86848958 -55.1875 58.70182292 -46.9375 49.53515625 C-46.19757813 48.71273437 -45.45765625 47.8903125 -44.6953125 47.04296875 C-43.17041756 45.34922731 -41.64434598 43.65654456 -40.1171875 41.96484375 C-36.12506274 37.53967495 -32.16424108 33.0917849 -28.25 28.59765625 C-26.16538836 26.22551196 -24.05321356 23.8795956 -21.9375 21.53515625 C-19.20894436 18.51062169 -16.49402586 15.47647506 -13.8125 12.41015625 C-13.25304687 11.77851563 -12.69359375 11.146875 -12.1171875 10.49609375 C-10.93663002 9.11786153 -9.79913887 7.70213791 -8.6953125 6.26171875 C-7.82519531 5.15957031 -7.82519531 5.15957031 -6.9375 4.03515625 C-6.17953125 3.0296875 -6.17953125 3.0296875 -5.40625 2.00390625 C-3.4375 0.53515625 -3.4375 0.53515625 0 0 Z " fill="#564C7F" transform="translate(202.4375,252.46484375)"/>
<path d="M0 0 C0.96665337 -0.00744736 0.96665337 -0.00744736 1.95283508 -0.01504517 C4.07745444 -0.02960893 6.20199916 -0.03645872 8.32666016 -0.04199219 C9.808726 -0.04774798 11.29079184 -0.05350566 12.77285767 -0.05926514 C15.87803493 -0.06975837 18.98318642 -0.07561214 22.08837891 -0.07910156 C26.05841525 -0.08458574 30.02810854 -0.10861892 33.99803734 -0.13707352 C37.05904117 -0.15573749 40.11996292 -0.16090747 43.18101883 -0.16243744 C44.64419049 -0.16545553 46.107361 -0.17345553 47.57047653 -0.18662262 C49.62146564 -0.20376429 51.67162368 -0.20178389 53.72265625 -0.1953125 C54.88751556 -0.19895813 56.05237488 -0.20260376 57.25253296 -0.20635986 C62.19704022 0.3547778 65.43588999 2.04779572 68.84130859 5.64208984 C71.18232125 10.63666598 70.9894032 15.01808164 70.88134766 20.46582031 C70.87568787 21.54493683 70.87002808 22.62405334 70.86419678 23.73587036 C70.84187362 27.16974957 70.79168283 30.60257097 70.74072266 34.03613281 C70.72065249 36.36945104 70.70240263 38.70278568 70.68603516 41.03613281 C70.64543014 46.7451978 70.56712759 52.45198658 70.49072266 58.16113281 C61.91072266 58.16113281 53.33072266 58.16113281 44.49072266 58.16113281 C44.43013672 56.0303125 44.36955078 53.89949219 44.30712891 51.70410156 C44.2453085 49.63888102 44.18193369 47.57371363 44.1184082 45.50854492 C44.07511472 44.07402278 44.03343567 42.63945097 43.9934082 41.20483398 C43.93556999 39.14193761 43.87191513 37.07928998 43.80712891 35.01660156 C43.75214233 33.15491333 43.75214233 33.15491333 43.69604492 31.25561523 C43.61928144 28.12559934 43.61928144 28.12559934 42.49072266 25.16113281 C37.48931637 23.49399738 32.2896904 23.9346279 27.05322266 23.91113281 C25.33522461 23.88019531 25.33522461 23.88019531 23.58251953 23.84863281 C22.48101563 23.84347656 21.37951172 23.83832031 20.24462891 23.83300781 C19.23730713 23.82366211 18.22998535 23.81431641 17.19213867 23.8046875 C13.99379302 24.22670148 12.8027607 24.93903985 10.49072266 27.16113281 C9.89007333 29.49446336 9.89007333 29.49446336 9.98278809 32.16453552 C9.97150879 33.19781982 9.96022949 34.23110413 9.9486084 35.29570007 C9.95670532 36.4287709 9.96480225 37.56184174 9.97314453 38.72924805 C9.96613525 39.92295013 9.95912598 41.11665222 9.9519043 42.3465271 C9.93730071 45.62152518 9.94074471 48.89587816 9.95342064 52.17086673 C9.96354284 55.59765408 9.95415693 59.0243981 9.94787598 62.45118713 C9.94059626 68.20720159 9.95019454 73.96301084 9.96923828 79.71899414 C9.99099758 86.37256471 9.98396426 93.02564482 9.96193266 99.67920345 C9.94377536 105.39142377 9.94122218 111.1034965 9.95168734 116.81573635 C9.95792189 120.22750928 9.95875948 123.63905177 9.94554138 127.05080986 C9.93540587 130.85542018 9.95083747 134.65908343 9.97314453 138.46362305 C9.96504761 139.59466965 9.95695068 140.72571625 9.9486084 141.89103699 C9.96552734 143.44519318 9.96552734 143.44519318 9.98278809 145.03074646 C9.98505024 146.37993746 9.98505024 146.37993746 9.98735809 147.75638485 C10.65466239 150.94433007 11.98036883 152.15163563 14.49072266 154.16113281 C17.23440039 154.75658095 17.23440039 154.75658095 20.24462891 154.65722656 C21.34613281 154.65787109 22.44763672 154.65851563 23.58251953 154.65917969 C25.30051758 154.62920898 25.30051758 154.62920898 27.05322266 154.59863281 C28.77702148 154.60926758 28.77702148 154.60926758 30.53564453 154.62011719 C36.23983448 154.90611883 36.23983448 154.90611883 41.27954102 152.8215332 C43.89070997 149.24190006 43.68080666 145.5825743 43.80712891 141.30566406 C43.82791 140.64402756 43.8486911 139.98239105 43.87010193 139.30070496 C43.93536993 137.1917843 43.9943761 135.08274147 44.05322266 132.97363281 C44.09642955 131.54197967 44.14004454 130.11033877 44.18408203 128.67871094 C44.2917945 125.17297485 44.39103573 121.66714306 44.49072266 118.16113281 C53.07072266 118.16113281 61.65072266 118.16113281 70.49072266 118.16113281 C70.58278893 124.85128174 70.66235923 131.53921341 70.71044922 138.22949219 C70.73050583 140.50300565 70.75775803 142.77646791 70.79248047 145.04980469 C70.84125977 148.3266263 70.86375163 151.60276306 70.88134766 154.87988281 C70.9019928 155.88853394 70.92263794 156.89718506 70.94390869 157.93640137 C70.9458085 163.9755006 70.473287 169.36176571 66.49072266 174.16113281 C62.11085364 177.69194856 59.16140312 178.66556548 53.57080078 178.69458008 C52.90656601 178.70319565 52.24233124 178.71181122 51.55796814 178.72068787 C49.37889797 178.74325032 47.20112397 178.7366287 45.02197266 178.72753906 C43.49792095 178.73277867 41.97387249 178.73905638 40.4498291 178.74632263 C37.26229546 178.75670851 34.07520877 178.75219138 30.88769531 178.73754883 C26.81197035 178.72035425 22.73765432 178.74387209 18.66208649 178.77903843 C15.51693461 178.80104469 12.37211831 178.79956348 9.22691345 178.79127312 C7.72466994 178.79045552 6.22240131 178.79728228 4.7202301 178.81204414 C-8.46304989 178.92175741 -8.46304989 178.92175741 -12.35107422 175.93432617 C-16.02328492 171.21570159 -16.75990934 167.46274099 -16.79016113 161.53274536 C-16.79610338 160.88004382 -16.80204562 160.22734228 -16.80816793 159.5548619 C-16.82546187 157.37555199 -16.82855144 155.19646283 -16.83154297 153.01708984 C-16.84080487 151.45137059 -16.85085493 149.88565584 -16.8616333 148.31994629 C-16.88782821 144.07197562 -16.9007602 139.82406808 -16.90965462 135.5760293 C-16.91552337 132.92074266 -16.92373425 130.26547315 -16.93266296 127.61019516 C-16.959996 119.29841733 -16.97933876 110.98667881 -16.98706675 102.67485917 C-16.99603095 93.08692555 -17.0311466 83.4995618 -17.08906794 73.91180146 C-17.13231569 66.49508027 -17.15247595 59.07851936 -17.15514898 51.66167343 C-17.15724368 47.23414738 -17.16902779 42.80715763 -17.20478821 38.37976456 C-17.23777666 34.21477508 -17.24204956 30.0507243 -17.22451019 25.88565063 C-17.2229709 24.35985675 -17.23163654 22.83401211 -17.2514267 21.30834579 C-17.40946802 8.3623122 -17.40946802 8.3623122 -13.71472168 3.76095581 C-9.73371584 -0.18105965 -5.36873284 0.0315127 0 0 Z " fill="#39659B" transform="translate(857.50927734375,261.8388671875)"/>
<path d="M0 0 C4.79477599 0.4794776 5.66847218 1.75420482 8.75 5.375 C9.8673276 6.48692988 10.99289662 7.59061761 12.125 8.6875 C15.16166818 11.72416818 17.99695786 14.88945001 20.80078125 18.140625 C23.08020694 20.75351376 25.41212353 23.31430021 27.75 25.875 C30.59524228 28.99407011 33.4219958 32.12255391 36.1875 35.3125 C39.61768576 39.26167367 43.16003518 43.10522305 46.70288086 46.95288086 C49.81599299 50.33962619 52.86252082 53.77406249 55.875 57.25 C58.76919336 60.53008581 61.74218892 63.73768057 64.70532227 66.95532227 C67.23740116 69.70973428 69.74035268 72.48242499 72.1875 75.3125 C75.29964124 78.90458591 78.51872086 82.39051992 81.75 85.875 C85.53631688 89.95801022 89.26767049 94.07269717 92.91015625 98.28515625 C95.3167047 101.01870916 97.78318994 103.69599122 100.25 106.375 C114.66895032 122.05118849 114.66895032 122.05118849 114.9375 126.4375 C114.07077452 131.30135946 110.57416471 134.26449417 107.26953125 137.71484375 C104.8407284 140.27920769 102.63668476 142.92545259 100.4375 145.6875 C96.54744069 150.50085437 92.42128166 155.0226145 88.19433594 159.53613281 C84.27121407 163.74893141 80.63103586 168.13895352 77.02734375 172.62890625 C74.08922549 176.17178299 70.96768822 179.52941772 67.83349609 182.89697266 C64.86269934 186.10816873 62.05031679 189.40136841 59.3125 192.8125 C55.46889943 197.59121628 51.38039836 202.06657687 47.19165039 206.53881836 C44.07446055 209.88599327 41.11426202 213.30505023 38.25 216.875 C34.43369626 221.63155249 30.36963358 226.08055887 26.20239258 230.52587891 C22.96958788 233.99495288 19.91093387 237.5522032 16.9375 241.25 C7.35459656 253.04301451 7.35459656 253.04301451 2.125 254.125 C-2.16727681 253.17116071 -3.25762059 251.5780498 -6.25 248.375 C-6.77770996 247.81828613 -7.30541992 247.26157227 -7.84912109 246.68798828 C-11.47125551 242.86260784 -15.04545794 238.99277215 -18.62060547 235.12353516 C-19.98101979 233.66364792 -21.36471729 232.22550214 -22.75390625 230.79296875 C-23.39199219 230.11878906 -24.03007812 229.44460938 -24.6875 228.75 C-25.48994141 227.92628906 -25.48994141 227.92628906 -26.30859375 227.0859375 C-27.25 225.375 -27.25 225.375 -27.14453125 222.96875 C-26.0752124 219.86819229 -24.65296888 217.96862973 -22.5 215.5 C-21.82453125 214.69820312 -21.1490625 213.89640625 -20.453125 213.0703125 C-18.25 211.375 -18.25 211.375 -15.734375 211.38671875 C-12.85511399 212.53208516 -11.37286025 213.81552091 -9.25 216.0625 C-8.21939453 217.13564453 -8.21939453 217.13564453 -7.16796875 218.23046875 C-5.53244973 220.05918553 -4.04111572 221.92061519 -2.5625 223.875 C-0.53574191 226.51858999 -0.53574191 226.51858999 2.0078125 226.95703125 C6.36744995 226.0316951 8.23122163 222.93847308 10.9375 219.5625 C12.09122403 218.17476283 13.24618263 216.78805116 14.40234375 215.40234375 C14.96937012 214.7151123 15.53639648 214.02788086 16.12060547 213.31982422 C18.33551179 210.6761407 20.65467107 208.15384449 23 205.625 C27.0040375 201.2593075 30.74999082 196.73416631 34.46875 192.125 C37.61312107 188.33452529 40.95402055 184.73955614 44.2890625 181.1171875 C46.66039895 178.47484117 48.90252997 175.76805833 51.125 173 C54.99218863 168.2035929 59.09980716 163.7045854 63.30810547 159.21142578 C67.200403 155.03200169 70.8067558 150.67574506 74.37890625 146.21875 C77.69483918 142.24181561 81.2142687 138.46789508 84.765625 134.70117188 C89.11963954 130.55322536 89.11963954 130.55322536 90.7578125 125.11328125 C89.27638166 121.08815328 86.59819347 118.58817124 83.625 115.5625 C82.42890362 114.3119472 81.23358396 113.060651 80.0390625 111.80859375 C79.17909668 110.91503174 79.17909668 110.91503174 78.30175781 110.00341797 C76.47864996 108.09024469 74.72649598 106.1256079 73 104.125 C68.98642061 99.47873815 64.86401852 94.93227977 60.75 90.375 C59.24971321 88.70859149 57.74971128 87.04192647 56.25 85.375 C55.5075 84.55 54.765 83.725 54 82.875 C20.25 45.375 20.25 45.375 18.03125 42.90234375 C16.43671203 41.13579227 14.83165259 39.37870644 13.21875 37.62890625 C12.4040625 36.74074219 11.589375 35.85257812 10.75 34.9375 C10.0075 34.13441406 9.265 33.33132813 8.5 32.50390625 C6.75 30.375 6.75 30.375 5.75 27.375 C0.77115606 25.98428739 0.77115606 25.98428739 -3.92236328 27.38232422 C-5.51739616 28.94490155 -6.91720813 30.56926678 -8.3125 32.3125 C-8.82997803 32.91570068 -9.34745605 33.51890137 -9.88061523 34.14038086 C-11.35848651 35.8685424 -12.80488494 37.61946066 -14.25 39.375 C-15.43230868 40.73370151 -16.61877365 42.08881879 -17.8125 43.4375 C-18.33972656 44.04722656 -18.86695313 44.65695312 -19.41015625 45.28515625 C-21.81670226 48.01870638 -24.28306703 50.69610702 -26.75 53.375 C-30.39419551 57.33357261 -33.98913842 61.32676903 -37.515625 65.390625 C-41.04500714 69.42874691 -44.65634226 73.39414681 -48.25 77.375 C-49.75028679 79.04140851 -51.25028872 80.70807353 -52.75 82.375 C-55.0217129 84.90000493 -57.29435414 87.42413304 -59.5703125 89.9453125 C-62.94912708 93.69064256 -66.31895965 97.44018207 -69.625 101.25 C-73.07851561 105.21752724 -76.6400394 109.0834764 -80.20263672 112.95263672 C-82.75525763 115.72958682 -85.27968205 118.52463313 -87.75 121.375 C-88.28367188 121.98214844 -88.81734375 122.58929688 -89.3671875 123.21484375 C-90.43030033 124.43455619 -91.4889665 125.65828359 -92.53222656 126.89501953 C-93.96474928 128.58939592 -95.41846675 130.26374741 -96.875 131.9375 C-97.33068359 132.48728516 -97.78636719 133.03707031 -98.25585938 133.60351562 C-99.6015625 135.12890625 -99.6015625 135.12890625 -102.25 137.375 C-105.51698199 137.46834234 -106.77030395 136.77211781 -109.26953125 134.703125 C-109.86121094 134.01734375 -110.45289063 133.3315625 -111.0625 132.625 C-111.66707031 131.94953125 -112.27164063 131.2740625 -112.89453125 130.578125 C-114.56105141 127.86942941 -114.58213679 126.5146383 -114.25 123.375 C-112.98413086 121.46557617 -112.98413086 121.46557617 -111.21484375 119.66796875 C-110.56966797 118.99830078 -109.92449219 118.32863281 -109.25976562 117.63867188 C-108.57591797 116.95353516 -107.89207031 116.26839844 -107.1875 115.5625 C-105.86194573 114.20312393 -104.53772314 112.84244802 -103.21484375 111.48046875 C-102.55564941 110.80580566 -101.89645508 110.13114258 -101.21728516 109.43603516 C-98.11198464 106.18275308 -95.18752893 102.77911317 -92.25 99.375 C-86.95879767 93.42695876 -81.58464863 87.55608405 -76.19628906 81.69628906 C-73.11851505 78.34205535 -70.10617752 74.93982021 -67.125 71.5 C-64.23148991 68.22068857 -61.25911641 65.01393288 -58.296875 61.796875 C-55.74444857 59.02005943 -53.22016712 56.22519283 -50.75 53.375 C-47.81155935 49.98449156 -44.78883698 46.67533018 -41.75 43.375 C-38.1058306 39.41640277 -34.51086221 35.42323168 -30.984375 31.359375 C-26.69320048 26.4496528 -22.29197892 21.63625182 -17.921875 16.796875 C-13.76439989 12.18688559 -9.63502673 7.55638492 -5.5625 2.87109375 C-3.38653631 0.39075419 -3.38653631 0.39075419 0 0 Z " fill="#564C7F" transform="translate(280.25,253.625)"/>
<path d="M0 0 C1.12019531 -0.00128906 2.24039063 -0.00257813 3.39453125 -0.00390625 C4.57402344 -0.00003906 5.75351562 0.00382812 6.96875 0.0078125 C8.73798828 0.00201172 8.73798828 0.00201172 10.54296875 -0.00390625 C12.22326172 -0.00197266 12.22326172 -0.00197266 13.9375 0 C14.97326172 0.00112793 16.00902344 0.00225586 17.07617188 0.00341797 C19.46875 0.1328125 19.46875 0.1328125 20.46875 1.1328125 C20.56802564 3.39608705 20.59507442 5.66252781 20.59573364 7.92797852 C20.59729363 8.64683259 20.59885362 9.36568666 20.60046089 10.1063242 C20.60447338 12.53314278 20.60128029 14.95989962 20.59814453 17.38671875 C20.59949846 19.11921221 20.60127835 20.85170538 20.60345459 22.584198 C20.6080299 27.30307083 20.60623896 32.0219219 20.6030755 36.74079514 C20.60055241 41.66777355 20.6028893 46.59475003 20.60446167 51.52172852 C20.60628351 59.7973667 20.60387667 68.07299598 20.59912109 76.34863281 C20.59367845 85.93086111 20.59544109 95.51306813 20.6009475 105.09529591 C20.60547821 113.30673054 20.60612938 121.51815875 20.60350883 129.72959423 C20.60194582 134.64078813 20.60175293 139.55197202 20.60504532 144.46316528 C20.60792343 149.07923509 20.60594946 153.69527733 20.60015106 158.31134415 C20.59882314 160.01055989 20.59921812 161.70977793 20.60141373 163.40899277 C20.60412398 165.71857586 20.60074567 168.0280692 20.59573364 170.33764648 C20.59535662 171.63331039 20.59497959 172.9289743 20.59459114 174.26390076 C20.46875 177.1328125 20.46875 177.1328125 19.46875 178.1328125 C17.62715977 178.23240871 15.78178033 178.26361661 13.9375 178.265625 C12.81730469 178.26691406 11.69710937 178.26820313 10.54296875 178.26953125 C9.36347656 178.26566406 8.18398438 178.26179687 6.96875 178.2578125 C5.19951172 178.26361328 5.19951172 178.26361328 3.39453125 178.26953125 C1.71423828 178.26759766 1.71423828 178.26759766 0 178.265625 C-1.03576172 178.26449707 -2.07152344 178.26336914 -3.13867188 178.26220703 C-5.53125 178.1328125 -5.53125 178.1328125 -6.53125 177.1328125 C-6.63052564 174.86953795 -6.65757442 172.60309719 -6.65823364 170.33764648 C-6.65979363 169.61879241 -6.66135362 168.89993834 -6.66296089 168.1593008 C-6.66697338 165.73248222 -6.66378029 163.30572538 -6.66064453 160.87890625 C-6.66199846 159.14641279 -6.66377835 157.41391962 -6.66595459 155.681427 C-6.6705299 150.96255417 -6.66873896 146.2437031 -6.6655755 141.52482986 C-6.66305241 136.59785145 -6.6653893 131.67087497 -6.66696167 126.74389648 C-6.66878351 118.4682583 -6.66637667 110.19262902 -6.66162109 101.91699219 C-6.65617845 92.33476389 -6.65794109 82.75255687 -6.6634475 73.17032909 C-6.66797821 64.95889446 -6.66862938 56.74746625 -6.66600883 48.53603077 C-6.66444582 43.62483687 -6.66425293 38.71365298 -6.66754532 33.80245972 C-6.67042343 29.18638991 -6.66844946 24.57034767 -6.66265106 19.95428085 C-6.66132314 18.25506511 -6.66171812 16.55584707 -6.66391373 14.85663223 C-6.66662398 12.54704914 -6.66324567 10.2375558 -6.65823364 7.92797852 C-6.65785662 6.63231461 -6.65747959 5.3366507 -6.65709114 4.00172424 C-6.44033257 -0.93991253 -4.43447223 0.00482908 0 0 Z " fill="#3A659C" transform="translate(691.53125,261.8671875)"/>
<path d="M0 0 C11.88 0 23.76 0 36 0 C36 43.56 36 87.12 36 132 C24.12 132 12.24 132 0 132 C0 88.44 0 44.88 0 0 Z " fill="#FEFEFE" transform="translate(976,285)"/>
<path d="M0 0 C1.07507813 -0.00128906 2.15015625 -0.00257813 3.2578125 -0.00390625 C4.38960938 -0.00003906 5.52140625 0.00382812 6.6875 0.0078125 C7.81929688 0.00394531 8.95109375 0.00007813 10.1171875 -0.00390625 C11.19226563 -0.00261719 12.26734375 -0.00132812 13.375 0 C14.86580078 0.00169189 14.86580078 0.00169189 16.38671875 0.00341797 C18.6875 0.1328125 18.6875 0.1328125 19.6875 1.1328125 C19.78677564 3.39608705 19.81382442 5.66252781 19.81448364 7.92797852 C19.81604363 8.64683259 19.81760362 9.36568666 19.81921089 10.1063242 C19.82322338 12.53314278 19.82003029 14.95989962 19.81689453 17.38671875 C19.81824846 19.11921221 19.82002835 20.85170538 19.82220459 22.584198 C19.8267799 27.30307083 19.82498896 32.0219219 19.8218255 36.74079514 C19.81930241 41.66777355 19.8216393 46.59475003 19.82321167 51.52172852 C19.82503351 59.7973667 19.82262667 68.07299598 19.81787109 76.34863281 C19.81242845 85.93086111 19.81419109 95.51306813 19.8196975 105.09529591 C19.82422821 113.30673054 19.82487938 121.51815875 19.82225883 129.72959423 C19.82069582 134.64078813 19.82050293 139.55197202 19.82379532 144.46316528 C19.82667343 149.07923509 19.82469946 153.69527733 19.81890106 158.31134415 C19.81757314 160.01055989 19.81796812 161.70977793 19.82016373 163.40899277 C19.82287398 165.71857586 19.81949567 168.0280692 19.81448364 170.33764648 C19.81410662 171.63331039 19.81372959 172.9289743 19.81334114 174.26390076 C19.6875 177.1328125 19.6875 177.1328125 18.6875 178.1328125 C16.91890807 178.23227703 15.14638549 178.26361467 13.375 178.265625 C12.29992187 178.26691406 11.22484375 178.26820313 10.1171875 178.26953125 C8.98539062 178.26566406 7.85359375 178.26179687 6.6875 178.2578125 C4.98980469 178.26361328 4.98980469 178.26361328 3.2578125 178.26953125 C2.18273437 178.26824219 1.10765625 178.26695312 0 178.265625 C-0.99386719 178.26449707 -1.98773438 178.26336914 -3.01171875 178.26220703 C-5.3125 178.1328125 -5.3125 178.1328125 -6.3125 177.1328125 C-6.41177564 174.86953795 -6.43882442 172.60309719 -6.43948364 170.33764648 C-6.44104363 169.61879241 -6.44260362 168.89993834 -6.44421089 168.1593008 C-6.44822338 165.73248222 -6.44503029 163.30572538 -6.44189453 160.87890625 C-6.44324846 159.14641279 -6.44502835 157.41391962 -6.44720459 155.681427 C-6.4517799 150.96255417 -6.44998896 146.2437031 -6.4468255 141.52482986 C-6.44430241 136.59785145 -6.4466393 131.67087497 -6.44821167 126.74389648 C-6.45003351 118.4682583 -6.44762667 110.19262902 -6.44287109 101.91699219 C-6.43742845 92.33476389 -6.43919109 82.75255687 -6.4446975 73.17032909 C-6.44922821 64.95889446 -6.44987938 56.74746625 -6.44725883 48.53603077 C-6.44569582 43.62483687 -6.44550293 38.71365298 -6.44879532 33.80245972 C-6.45167343 29.18638991 -6.44969946 24.57034767 -6.44390106 19.95428085 C-6.44257314 18.25506511 -6.44296812 16.55584707 -6.44516373 14.85663223 C-6.44787398 12.54704914 -6.44449567 10.2375558 -6.43948364 7.92797852 C-6.43910662 6.63231461 -6.43872959 5.3366507 -6.43834114 4.00172424 C-6.22506417 -0.86053935 -4.37370592 0.00496367 0 0 Z " fill="#38649B" transform="translate(421.3125,261.8671875)"/>
<path d="M0 0 C1.17691406 -0.04576172 2.35382812 -0.09152344 3.56640625 -0.13867188 C13.35817372 -0.26533703 13.35817372 -0.26533703 17.6484375 3.33984375 C20.7387081 6.50373805 21.49968393 8.56317589 21.51544189 12.96551514 C21.52115204 13.91880707 21.52686218 14.872099 21.53274536 15.85427856 C21.53386322 16.90364594 21.53498108 17.95301331 21.53613281 19.03417969 C21.54358017 20.6880217 21.54358017 20.6880217 21.55117798 22.37527466 C21.56582817 26.03664771 21.57260681 29.69797741 21.578125 33.359375 C21.58387465 35.89805096 21.5896324 38.43672691 21.59539795 40.97540283 C21.60457078 45.62335502 21.6108674 50.27129415 21.6138947 54.91925311 C21.61837165 61.75524145 21.63590101 68.59102946 21.6648953 75.42695689 C21.68914521 81.35042552 21.69684049 87.27384443 21.69857025 93.19736481 C21.70159896 95.71555928 21.70963477 98.23375287 21.72275543 100.75191498 C21.73980384 104.27584504 21.73793816 107.79928765 21.73144531 111.32324219 C21.74526749 112.88514786 21.74526749 112.88514786 21.7593689 114.47860718 C21.72029089 121.24687506 20.99399871 125.84426194 15.9921875 130.796875 C10.54151612 133.26910176 5.40514369 132.86078864 -0.5 132.6875 C-1.6653125 132.66945313 -2.830625 132.65140625 -4.03125 132.6328125 C-6.89668249 132.5858382 -9.76041168 132.52016293 -12.625 132.4375 C-13.8930419 129.9014162 -13.75085443 128.14613701 -13.75198364 125.30638123 C-13.75480347 124.21965118 -13.75762329 123.13292114 -13.76052856 122.01325989 C-13.75749222 120.21703438 -13.75749222 120.21703438 -13.75439453 118.38452148 C-13.75614685 117.12762512 -13.75789917 115.87072876 -13.75970459 114.57574463 C-13.76427248 111.12341692 -13.76249212 107.67111902 -13.7593255 104.21879077 C-13.75679914 100.61176646 -13.75914016 97.00474475 -13.76071167 93.39772034 C-13.76253232 87.34074443 -13.76012954 81.2837807 -13.75537109 75.22680664 C-13.74992622 68.2149233 -13.75169318 61.20306901 -13.7571975 54.19118637 C-13.76172867 48.17928805 -13.76237923 42.16739851 -13.75975883 36.15549904 C-13.7581964 32.56111904 -13.75800142 28.96675272 -13.76129532 25.37237358 C-13.76470796 21.36859273 -13.75998425 17.36486237 -13.75439453 13.36108398 C-13.75641876 12.16157608 -13.75844299 10.96206818 -13.76052856 9.72621155 C-13.75770874 8.64230133 -13.75488892 7.55839111 -13.75198364 6.44163513 C-13.75160662 5.4938642 -13.75122959 4.54609327 -13.75084114 3.56960201 C-13.42031519 -2.03043493 -4.21946286 0.06571666 0 0 Z " fill="#FEFEFE" transform="translate(615.625,284.5625)"/>
<path d="M0 0 C3.76172484 0.58759789 5.00131706 2.28031042 7.48828125 5.10546875 C8.27847656 5.97558594 9.06867188 6.84570312 9.8828125 7.7421875 C11.67578125 10.41796875 11.67578125 10.41796875 12.22265625 12.91796875 C11.4427697 16.4831644 9.64062658 18.12779271 7.11328125 20.73046875 C6.18558346 21.70384183 5.25850251 22.67780317 4.33203125 23.65234375 C3.45546875 24.565 2.57890625 25.47765625 1.67578125 26.41796875 C0.47798418 27.76303595 -0.71093545 29.11611643 -1.88671875 30.48046875 C-4.45095787 33.43504872 -7.06559432 36.3375756 -9.69921875 39.23046875 C-12.75280742 42.60737857 -15.6685108 46.05014007 -18.51171875 49.60546875 C-23.41425361 55.67117093 -28.74679912 61.29961852 -34.09375 66.97265625 C-37.03454454 70.09572797 -39.88821052 73.28068967 -42.6875 76.53125 C-45.44864515 79.71414525 -48.28727519 82.8271482 -51.12109375 85.9453125 C-52.53771148 87.53523984 -53.92608384 89.15104043 -55.27734375 90.796875 C-55.8703125 91.51746094 -56.46328125 92.23804688 -57.07421875 92.98046875 C-57.5846875 93.62113281 -58.09515625 94.26179688 -58.62109375 94.921875 C-60.90187232 96.92540297 -62.28602119 97.38136396 -65.32421875 97.41796875 C-67.74609375 95.7578125 -67.74609375 95.7578125 -70.07421875 93.35546875 C-70.8528125 92.58074219 -71.63140625 91.80601562 -72.43359375 91.0078125 C-74.71925166 87.87683896 -75.49973645 86.31348652 -75.32421875 82.41796875 C-73.66975286 79.77820239 -71.54656004 77.71049626 -69.32421875 75.54296875 C-68.10996032 74.30148189 -66.89641215 73.05929993 -65.68359375 71.81640625 C-65.09771484 71.22698242 -64.51183594 70.63755859 -63.90820312 70.03027344 C-62.05134115 68.14021232 -60.29834715 66.17945189 -58.57421875 64.16796875 C-56.07712302 61.27109168 -53.5245903 58.43306741 -50.94921875 55.60546875 C-47.89563008 52.22855893 -44.9799267 48.78579743 -42.13671875 45.23046875 C-37.23017144 39.15980213 -31.89221258 33.5272796 -26.54296875 27.84765625 C-23.03483044 24.12126048 -19.64498481 20.3120039 -16.32421875 16.41796875 C-14.7728718 14.60440724 -13.22085208 12.7914242 -11.66845703 10.97875977 C-10.58099835 9.70813496 -9.49469627 8.43651918 -8.40966797 7.16381836 C-2.70643304 0.48670308 -2.70643304 0.48670308 0 0 Z " fill="#638EC0" transform="translate(261.32421875,317.58203125)"/>
<path d="M0 0 C4.87608363 0.27089353 6.81124497 2.49236947 10 6 C10.94875 6.845625 11.8975 7.69125 12.875 8.5625 C13.57625 9.366875 14.2775 10.17125 15 11 C14.31189598 20.31889442 0.40379848 31.00708155 -5.7734375 37.55859375 C-8.69174676 40.65773486 -11.5196099 43.82075898 -14.296875 47.046875 C-16.49365905 49.56612276 -18.74689619 52.03102996 -21 54.5 C-24.45328153 58.28662998 -27.86099051 62.1047632 -31.22265625 65.97265625 C-33.29359487 68.33489173 -35.39512848 70.66795853 -37.5 73 C-40.18983431 75.98062721 -42.86310364 78.97245233 -45.5 82 C-46.05429688 82.63035156 -46.60859375 83.26070313 -47.1796875 83.91015625 C-48.55422624 85.48822111 -49.91050876 87.0822137 -51.2578125 88.68359375 C-52.03898437 89.59238281 -52.82015625 90.50117188 -53.625 91.4375 C-54.33914062 92.28183594 -55.05328125 93.12617188 -55.7890625 93.99609375 C-58.33240709 96.30128063 -59.56187018 97.05854401 -63 97 C-65.421875 95.3046875 -65.421875 95.3046875 -67.75 92.875 C-68.91789063 91.69550781 -68.91789063 91.69550781 -70.109375 90.4921875 C-72.13435526 87.82289534 -72.92465682 86.34200801 -73 83 C-71.8828125 81.11328125 -71.8828125 81.11328125 -70.125 79.3125 C-69.15433594 78.28576172 -69.15433594 78.28576172 -68.1640625 77.23828125 C-67.44992188 76.49964844 -66.73578125 75.76101563 -66 75 C-64.49431701 73.33846561 -62.99445891 71.67163703 -61.5 70 C-60.34951172 68.72382813 -60.34951172 68.72382813 -59.17578125 67.421875 C-55.15981414 62.95167821 -51.20960504 58.42846879 -47.3203125 53.84765625 C-41.72558261 47.26681821 -36.04264888 40.80234102 -30.15625 34.48046875 C-26.93710045 31.02286368 -23.78755757 27.51970949 -20.69921875 23.9453125 C-18.70593572 21.6633471 -16.66506973 19.42771426 -14.625 17.1875 C-10.50864859 12.63263693 -6.60753289 7.92738012 -2.75 3.15234375 C-1 1 -1 1 0 0 Z " fill="#638EC0" transform="translate(281,343)"/>
<path d="M0 0 C6.21494286 7.30255786 6.21537938 15.18091468 6.3125 24.375 C6.34150391 25.2825 6.37050781 26.19 6.40039062 27.125 C6.46384622 33.9001055 5.30585834 39.4324612 0.58740234 44.52441406 C-5.6282696 50.0295529 -11.51090229 50.51849243 -19.546875 50.3671875 C-24.44946234 49.84587165 -27.58614298 48.57053162 -31 45 C-38.09639215 35.13993754 -38.42148696 22.84213075 -36.5390625 11.1328125 C-34.99879045 5.89588751 -32.28380293 1.43484882 -28 -2 C-19.39555965 -5.41210566 -7.49630599 -6.21221654 0 0 Z " fill="#64A1D4" transform="translate(1045,460)"/>
<path d="M0 0 C0 3.63 0 7.26 0 11 C-2.475 10.505 -2.475 10.505 -5 10 C-6.83090744 9.88688359 -8.66564687 9.82538169 -10.5 9.8125 C-11.4178125 9.79832031 -12.335625 9.78414063 -13.28125 9.76953125 C-16.22887398 10.01940167 -18.35428685 10.69336058 -21 12 C-22.27489266 13.79927039 -22.27489266 13.79927039 -23 16 C-23.37125 16.9075 -23.7425 17.815 -24.125 18.75 C-24.558125 19.86375 -24.558125 19.86375 -25 21 C-23.88625 20.505 -22.7725 20.01 -21.625 19.5 C-16.71794822 17.70537152 -12.17021544 16.98398302 -7 18 C-2.26467495 20.4037183 2.193226 23.91844811 4 29 C4.66754307 35.2176869 4.77162269 40.76839433 1 46 C-3.46416765 50.57439401 -7.59201549 53.67157095 -14.12109375 54.30078125 C-26.33886923 54.3439536 -26.33886923 54.3439536 -31.578125 49.55859375 C-37.61890971 43.23922916 -39.14868678 36.65236424 -39.4375 28.0625 C-39.24713139 20.04105889 -37.16456472 14.37417441 -32.875 7.6875 C-23.04545958 -1.50098344 -12.71879007 -0.55567529 0 0 Z " fill="#66A2D4" transform="translate(1150,456)"/>
<path d="M0 0 C1.28970703 -0.04930664 1.28970703 -0.04930664 2.60546875 -0.09960938 C9.02663342 -0.15320028 13.1304051 1.39655816 18.125 5.4375 C21.74070846 9.27919024 21.68588624 13.59288743 21.54296875 18.65625 C20.87672704 23.08955933 18.87872697 25.98962026 16.125 29.4375 C15.3825 30.448125 14.64 31.45875 13.875 32.5 C10.50527469 36.43315205 6.25507943 39.35535117 2.125 42.4375 C9.385 42.7675 16.645 43.0975 24.125 43.4375 C24.125 46.7375 24.125 50.0375 24.125 53.4375 C10.265 53.4375 -3.595 53.4375 -17.875 53.4375 C-17.875 44.4375 -17.875 44.4375 -15.34765625 41.6875 C-14.22960648 40.90994342 -13.0914231 40.1607503 -11.9375 39.4375 C-10.74105813 38.60691496 -9.54836869 37.77090013 -8.359375 36.9296875 C-7.76833984 36.5181543 -7.17730469 36.10662109 -6.56835938 35.68261719 C-1.59493755 32.02568938 3.83503769 27.29980352 6.125 21.4375 C6.53445671 18.61916164 6.35781123 16.32435921 6.125 13.4375 C2.07195539 10.73547026 -1.11462876 10.89187605 -5.875 11.4375 C-8.33813436 12.25382614 -10.52619939 13.31007571 -12.875 14.4375 C-13.865 14.4375 -14.855 14.4375 -15.875 14.4375 C-15.875 10.4775 -15.875 6.5175 -15.875 2.4375 C-10.53187279 0.25645299 -5.68248812 0.03799583 0 0 Z " fill="#65A2D4" transform="translate(976.875,455.5625)"/>
<path d="M0 0 C3.46758476 2.65602237 5.81081942 5.29259385 6.56640625 9.66796875 C6.76085358 20.5181298 3.28766094 25.50545317 -4 33.125 C-6.91384248 36.02096615 -9.2664581 37.54737486 -12.9375 39.75 C-5.6775 40.08 1.5825 40.41 9.0625 40.75 C9.0625 44.05 9.0625 47.35 9.0625 50.75 C-4.4675 50.75 -17.9975 50.75 -31.9375 50.75 C-31.9375 41.75 -31.9375 41.75 -30.47216797 39.57006836 C-29.79814941 39.08159424 -29.12413086 38.59312012 -28.4296875 38.08984375 C-27.31980469 37.2400293 -27.31980469 37.2400293 -26.1875 36.37304688 C-25.40375 35.81681641 -24.62 35.26058594 -23.8125 34.6875 C-17.28124885 29.87762097 -11.63041348 25.13582696 -7.9375 17.75 C-7.5207448 14.79211431 -7.5207448 14.79211431 -7.9375 11.75 C-10.76438029 9.01306591 -12.85661959 8.31863131 -16.75 8.3125 C-21.88328671 8.44140085 -24.71643829 9.93595886 -28.9375 12.75 C-29.5975 12.75 -30.2575 12.75 -30.9375 12.75 C-31.01832094 10.79233719 -31.07660778 8.83373272 -31.125 6.875 C-31.15980469 5.78445313 -31.19460938 4.69390625 -31.23046875 3.5703125 C-31.13378906 2.63960938 -31.03710938 1.70890625 -30.9375 0.75 C-23.54427829 -4.17881447 -7.66580453 -4.67987318 0 0 Z " fill="#63A1D4" transform="translate(1093.9375,458.25)"/>
<path d="M0 0 C3.60870093 1.20290031 4.62993954 1.82877469 6.375 5.125 C7.68061288 9.04183864 7.59874165 12.79182648 7.625 16.875 C7.645625 17.66132813 7.66625 18.44765625 7.6875 19.2578125 C7.7233381 24.65144671 6.90187355 28.34111319 4.375 33.125 C2.375 35.125 2.375 35.125 -1 35.625 C-4.625 35.125 -4.625 35.125 -6.81640625 32.8125 C-9.66557821 28.13764504 -9.24455 22.93400595 -9.1875 17.625 C-9.22327148 16.09552734 -9.22327148 16.09552734 -9.25976562 14.53515625 C-9.24351138 6.20214642 -9.24351138 6.20214642 -6.31640625 2.4140625 C-3.625 0.125 -3.625 0.125 0 0 Z " fill="#F7FAFC" transform="translate(1030.625,464.875)"/>
<path d="M0 0 C3 1.4375 3 1.4375 5 4 C5.96080537 8.55744848 5.55458862 11.95481376 3.375 16.0625 C1 18 1 18 -1.9375 18.6875 C-5.31194585 17.92997134 -7.00421165 16.84205964 -9.09765625 14.06640625 C-10.90655749 9.9239441 -10.35381251 5.41872517 -10 1 C-6.78056368 -0.60971816 -3.49085354 -0.45387771 0 0 Z " fill="#F8FAFD" transform="translate(1135,483)"/>
<path d="M0 0 C0.66 0.33 1.32 0.66 2 1 C0.35 2.65 -1.3 4.3 -3 6 C2.94 6.33 8.88 6.66 15 7 C15 7.33 15 7.66 15 8 C7.41 8 -0.18 8 -8 8 C-5.33333333 5.33333333 -2.66666667 2.66666667 0 0 Z " fill="#E4EFF7" transform="translate(986,491)"/>
<path d="M0 0 C0.598125 0.20625 1.19625 0.4125 1.8125 0.625 C0.575 1.058125 0.575 1.058125 -0.6875 1.5 C-3.42426275 3.34748522 -3.42426275 3.34748522 -3.51953125 6.05078125 C-3.50156576 8.5911018 -3.40118825 11.09398139 -3.1875 13.625 C-3.8475 13.625 -4.5075 13.625 -5.1875 13.625 C-5.26832094 11.66733719 -5.32660778 9.70873272 -5.375 7.75 C-5.40980469 6.65945313 -5.44460938 5.56890625 -5.48046875 4.4453125 C-5.38378906 3.51460938 -5.28710938 2.58390625 -5.1875 1.625 C-2.1875 -0.375 -2.1875 -0.375 0 0 Z " fill="#8DBAE0" transform="translate(1068.1875,457.375)"/>
</svg>
